inDegrees=yes
name=ik_S54_A02_T01
DataType=double
version=3
OpenSimVersion=4.3-2021-08-27-4bc7ad9
endheader
time	pelvis_tilt	pelvis_list	pelvis_rotation	pelvis_tx	pelvis_ty	pelvis_tz	hip_flexion_r	hip_adduction_r	hip_rotation_r	knee_angle_r	knee_angle_r_beta	ankle_angle_r	subtalar_angle_r	mtp_angle_r	hip_flexion_l	hip_adduction_l	hip_rotation_l	knee_angle_l	knee_angle_l_beta	ankle_angle_l	subtalar_angle_l	mtp_angle_l	lumbar_extension	lumbar_bending	lumbar_rotation	arm_flex_r	arm_add_r	arm_rot_r	elbow_flex_r	pro_sup_r	wrist_flex_r	wrist_dev_r	arm_flex_l	arm_add_l	arm_rot_l	elbow_flex_l	pro_sup_l	wrist_flex_l	wrist_dev_l
29.37999999999946	2.096595252408074	-4.618545836530036	66.87703140116021	0	0.9399999999999999	0	-6.556472925331278	-3.239787597838159	3.048147316397164	19.20708763097233	0.3352269188795447	0	0	0	17.47998363645567	-1.173599774781051	-9.400742320907701	10.69477389948017	0.1866590173022821	0	0	0	0	0	0	40.93497807669426	-40.93497807669426	4.925966693463871	83.98910504402284	85.07403357793224	0	0	40.93497807669426	-40.93497807669426	4.925966693463871	83.98910504402284	85.07403357791756	0	0
29.39999999999946	2.36437189581349	-4.49416928698371	66.67871918189046	0	0.9399999999999999	0	-7.515593768526542	-2.04634276146241	3.75489044386624	17.51432166086851	0.3056825792355172	0	0	0	17.86478956418186	-1.997086132415488	-8.299090978878249	9.962270862342805	0.1738744275233767	0	0	0	0	0	0	40.93646711544138	-40.93646711544138	4.926021225465489	83.98984974075645	85.07397904593297	0	0	40.93646711544138	-40.93646711544138	4.926021225465489	83.98984974075645	85.07397904591831	0	0
29.41999999999946	2.517877360698489	-4.317445136747694	66.46368653653856	0	0.9399999999999999	0	-7.856571668386505	-1.594873625650468	3.614630001533519	17.49467324824759	0.3053396497424917	0	0	0	18.1085405156928	-2.657609603759927	-7.6595486764883	9.688445541262533	0.1690952740951953	0	0	0	0	0	0	40.93696520254925	-40.93696520254925	4.926039472823804	83.99009892928784	85.07396079857544	0	0	40.93696520254925	-40.93696520254925	4.926039472823804	83.99009892928784	85.0739607985608	0	0
29.43999999999946	2.483393990424668	-4.023645994419815	66.1972815465531	0	0.9399999999999999	0	-8.090819363664831	-1.603889515459409	3.745019657173618	15.9280564596643	0.2779970286646934	0	0	0	18.14743157457771	-3.39472955047828	-7.057434526872886	8.341786902388264	0.145591646946414	0	0	0	0	0	0	40.93854808533187	-40.93854808533187	4.926097431146636	83.99089041616749	85.07390284025513	0	0	40.93854808533187	-40.93854808533187	4.926097431146636	83.99089041616749	85.07390284024048	0	0
29.45999999999946	2.338902870137078	-3.717842069804196	65.94478261226595	0	0.9399999999999999	0	-8.181683450265584	-1.45591594373089	3.054252654944638	16.21702181559587	0.2830404255498967	0	0	0	18.27121079406824	-4.076436632785049	-6.9145289235432	7.047508704852492	0.1230022309626373	0	0	0	0	0	0	40.93960960148618	-40.93960960148618	4.926136280863634	83.99142095313626	85.07386399053973	0	0	40.93960960148618	-40.93960960148618	4.926136280863634	83.99142095313626	85.07386399052515	0	0
29.47999999999946	2.291703387542264	-3.344147151999886	65.83472295994389	0	0.9399999999999999	0	-7.17524811606324	0.1065282078899943	1.997017883230219	14.38750183460297	0.2511092781505464	0	0	0	18.3139102443492	-4.783671266003058	-7.529169938325056	5.665860901456477	0.09888792769042951	0	0	0	0	0	0	40.93958794073013	-40.93958794073013	4.92614062022238	83.99148023269085	85.07385965118121	0	0	40.93958794073013	-40.93958794073013	4.92614062022238	83.99148023269085	85.0738596511666	0	0
29.49999999999946	2.295377081887096	-3.327604086825614	65.82937424673224	0	0.9399999999999999	0	-7.191514112162592	0.2892949096236898	1.830472073374429	12.70956708390592	0.2218237921172526	0	0	0	18.27132944337102	-4.949334774954618	-7.521821792801044	3.620490352326533	0.06318947718478755	0	0	0	0	0	0	40.94059843203021	-40.94059843203021	4.926177352680244	83.99198185497765	85.07382291872489	0	0	40.94059843203021	-40.94059843203021	4.926177352680244	83.99198185497765	85.07382291871029	0	0
29.51999999999946	2.811946864493799	-3.025257909491918	66.04472231530258	0	0.9399999999999999	0	-6.890807291653084	1.399694419798802	1.486006999569307	11.88079579764836	0.2073590044260698	0	0	0	18.17503990027436	-6.17533450731601	-8.454545653049701	2.407870971235043	0.04202527641124517	0	0	0	0	0	0	40.93688447425909	-40.93688447425909	4.926070006019484	83.99051603771494	85.07393026538124	0	0	40.93688447425909	-40.93688447425909	4.926070006019484	83.99051603771494	85.07393026536664	0	0
29.53999999999946	3.696583073746621	-3.243502207976471	66.49449063495099	0	0.9399999999999999	0	-6.458172547463385	2.888119484403488	1.636699116164574	10.88924864375163	0.1900532419017931	0	0	0	17.99589838975819	-7.051938368687818	-7.983238566331989	0.3700707381699556	0.00645895284635158	0	0	0	0	0	0	40.93872682244662	-40.93872682244662	4.926137384046998	83.99143616085962	85.07386288735664	0	0	40.93872682244662	-40.93872682244662	4.926137384046998	83.99143616085962	85.07386288734206	0	0
29.55999999999946	4.565617258802752	-3.831530415012591	67.48259220255811	0	0.9399999999999999	0	-5.645237167919108	4.338761371066437	1.533064478479399	9.985923148172617	0.1742872377867297	0	0	0	19.05485365704797	-9.161740787911286	-12.86721227671764	1.965035779208419	0.03429634426667925	0	0	0	0	0	0	40.94975697351554	-40.94975697351554	4.926492799684826	83.99628955285294	85.07350747173372	0	0	40.94975697351554	-40.94975697351554	4.926492799684826	83.99628955285294	85.07350747171918	0	0
29.57999999999946	5.092280595198262	-4.317401778087349	68.27929961823796	0	0.9399999999999999	0	-3.652179975712423	5.760952600916724	2.814066613030617	9.847894517386161	0.1718781837174865	0	0	0	19.38261585330865	-9.593851033027663	-12.15236562781532	0.9469065452906634	0.01652663692400688	0	0	0	0	0	0	40.95579629283576	-40.95579629283576	4.926688004106796	83.9989551765144	85.07331226731991	0	0	40.95579629283576	-40.95579629283576	4.926688004106796	83.9989551765144	85.07331226730543	0	0
29.59999999999946	5.376997415701214	-4.686102135785996	69.02644848103392	0	0.9399999999999999	0	-2.448533456385416	6.739120722102925	2.492444586938893	9.362728678841988	0.1634104424166914	0	0	0	19.20388687076848	-8.769986904773026	-15.24722194520484	1.462774203447453	0.02553022606339544	0	0	0	0	0	0	40.96639292537624	-40.96639292537624	4.927024602053208	84.00355157771646	85.07297566938756	0	0	40.96639292537624	-40.96639292537624	4.927024602053208	84.00355157771646	85.07297566937314	0	0
29.61999999999946	5.419977735105833	-4.561705592836446	69.60531267932275	0	0.9399999999999999	0	-1.743391435272886	7.104745505664168	1.791051316831207	7.788536425674227	0.1359356045395259	0	0	0	18.4633882447799	-7.49526194002894	-13.43019335420849	1.568427442758201	0.02737422295476551	0	0	0	0	0	0	40.96822001908701	-40.96822001908701	4.927091100997805	84.00445969283712	85.0729091704458	0	0	40.96822001908701	-40.96822001908701	4.927091100997805	84.00445969283712	85.0729091704314	0	0
29.63999999999946	5.21691542697047	-4.192174106864833	69.97162924064898	0	0.9399999999999999	0	-1.230625316603995	6.920005279175608	1.244320292143077	7.429893117478002	0.129676097971257	0	0	0	18.29218460514805	-6.214889977670498	-12.33204575133649	6.795657453163073	0.118606597395388	0	0	0	0	0	0	41.01746437750464	-41.01746437750464	4.928607534215732	84.02516705074484	85.07139273729081	0	0	41.01746437750464	-41.01746437750464	4.928607534215732	84.02516705074484	85.07139273727671	0	0
29.65999999999946	5.042441758017017	-3.99614732018798	70.13018532881595	0	0.9399999999999999	0	-0.6903892978550715	6.850623701931998	1.092689315033381	6.929110566187587	0.1209357936147019	0	0	0	18.48904824014048	-6.123139790729446	-14.73682448140325	11.46054563859361	0.2000242554685346	0	0	0	0	0	0	41.04671366535396	-41.04671366535396	4.929508023523459	84.03746350614831	85.07049224802043	0	0	41.04671366535396	-41.04671366535396	4.929508023523459	84.03746350614831	85.07049224800653	0	0
29.67999999999946	4.57935891414528	-3.745371567315596	70.37224238700503	0	0.9399999999999999	0	-0.1559127386029485	6.453951647979061	0.8634255051207952	7.443266839363123	0.1299095134513984	0	0	0	17.97736271684823	-5.1318230554757	-13.3893635192768	12.65598303952464	0.2208885741162646	0	0	0	0	0	0	41.04809319062563	-41.04809319062563	4.929557475652041	84.03813882223956	85.07044279589392	0	0	41.04809319062563	-41.04809319062563	4.929557475652041	84.03813882223956	85.07044279588001	0	0
29.69999999999946	4.165491789575312	-3.649665829094875	70.54364294706242	0	0.9399999999999999	0	0.4825071597988106	6.127609849370123	0.7913568241730998	6.877145162552118	0.1200288262241351	0	0	0	17.25143251844153	-4.109232137776923	-12.33035725103537	15.4755146402694	0.2700986839132869	0	0	0	0	0	0	41.04959983193991	-41.04959983193991	4.929611430193075	84.03887562279289	85.07038884135514	0	0	41.04959983193991	-41.04959983193991	4.929611430193075	84.03887562279289	85.07038884134126	0	0
29.71999999999946	3.818980783005372	-3.685209971422048	70.6504677310259	0	0.9399999999999999	0	0.6432418191787785	5.816736513681046	0.6728796079396644	6.892450546455543	0.1202959555665316	0	0	0	16.53582168338349	-3.241190578703229	-13.04966458260743	18.54559964332838	0.3236817755327663	0	0	0	0	0	0	41.05121903473267	-41.05121903473267	4.929669381194266	84.03966699858749	85.07033089035642	0	0	41.05121903473267	-41.05121903473267	4.929669381194266	84.03966699858749	85.07033089034255	0	0
29.73999999999945	3.509189821088844	-3.833478854497054	70.69938394269455	0	0.9399999999999999	0	1.486515604006104	5.644841294384289	0.7724287153305229	5.499935002275389	0.09599197443538734	0	0	0	15.86965876849782	-2.585405472353797	-13.81212154056367	21.27319753197943	0.3712873393601728	0	0	0	0	0	0	41.05245161566264	-41.05245161566264	4.929713353197731	84.04026747727991	85.07028691835491	0	0	41.05245161566264	-41.05245161566264	4.929713353197731	84.04026747727991	85.07028691834103	0	0
29.75999999999945	3.168030452033456	-3.885632997599917	70.77359835423879	0	0.9399999999999999	0	2.306108649301015	5.419810742911186	0.9205436066359377	5.227064938538713	0.09122949339305558	0	0	0	15.99924365372665	-2.349236550391538	-14.10560663287165	24.8308528747139	0.4333801387420566	0	0	0	0	0	0	41.05413734202654	-41.05413734202654	4.929773347206803	84.04108675070141	85.07022692434838	0	0	41.05413734202654	-41.05413734202654	4.929773347206803	84.04108675070141	85.07022692433449	0	0
29.77999999999945	3.067945582517648	-3.858959909960213	70.80235108507031	0	0.9399999999999999	0	3.0181978660113	5.451829756126306	1.181588774233742	5.096156526965475	0.08894471059254673	0	0	0	14.83772699327374	-1.864200934891435	-14.31824161080288	25.24986202693416	0.4406932280442903	0	0	0	0	0	0	41.05494087775627	-41.05494087775627	4.929801943017963	84.04147725279282	85.07019832853847	0	0	41.05494087775627	-41.05494087775627	4.929801943017963	84.04147725279282	85.07019832852458	0	0
29.79999999999945	2.900406282032281	-3.815255859880383	70.91539254515182	0	0.9399999999999999	0	4.395258627287474	5.451167044430576	1.60723172434506	5.505389318565984	0.09608717021310341	0	0	0	14.84290203287437	-1.769480619002437	-14.48854968982505	28.69958730940396	0.5009022925126797	0	0	0	0	0	0	41.09068971199014	-41.09068971199014	4.930881858678672	84.05622372808436	85.06911841292238	0	0	41.09068971199014	-41.09068971199014	4.930881858678672	84.05622372808436	85.06911841290874	0	0
29.81999999999945	2.704194254378118	-3.744878191700086	71.17205532079934	0	0.9399999999999999	0	5.128517344552986	5.313567058837582	1.791833439564163	5.497391778152152	0.09594758680082073	0	0	0	14.83107970611758	-1.572526236753675	-14.46946795053522	31.84826446443225	0.5558570759502514	0	0	0	0	0	0	41.09239466472984	-41.09239466472984	4.930942310018928	84.05704924415861	85.06905796158468	0	0	41.09239466472984	-41.09239466472984	4.930942310018928	84.05704924415861	85.06905796157105	0	0
29.83999999999945	2.56723419858536	-3.688876065418844	71.45199995630006	0	0.9399999999999999	0	5.928042137847276	5.298017667228435	2.085360630390324	5.226476594429361	0.09121922485121267	0	0	0	10.65573190996156	-0.2688913123426618	-16.70232839361252	30.53212530909436	0.5328861142751881	0	0	0	0	0	0	41.10208390084983	-41.10208390084983	4.931241689877959	84.06113736892122	85.06875858173809	0	0	41.10208390084983	-41.10208390084983	4.931241689877959	84.06113736892122	85.06875858172452	0	0
